<?xml version="1.0" encoding="utf-8"?>
<!-- Generator: Adobe Illustrator 22.0.0, SVG Export Plug-In . SVG Version: 6.00 Build 0)  -->
<svg version="1.1" id="Layer_1" xmlns="http://www.w3.org/2000/svg" xmlns:xlink="http://www.w3.org/1999/xlink" x="0px" y="0px"
	 viewBox="0 0 477.9 505" style="enable-background:new 0 0 477.9 505;" xml:space="preserve">
<style type="text/css">
	.st0{fill:#FFFFFF;}
	.st1{fill-rule:evenodd;clip-rule:evenodd;fill:#FFFFFF;}
</style>
<g>
	<path class="st0" d="M232.4,74.1c0-6.1-0.1-6.7-3.2-8.5l-1-0.6c-0.5-0.3-0.5-1.7,0-2c2.6-0.8,7.4-2.4,11.1-4.3c0.4,0,0.8,0.2,1,0.6
		c-0.1,3.1-0.3,8.2-0.3,12.7v21.5c0,0.9,0.1,1.7,0.4,2c3.7-2.9,8.6-5.3,13.9-5.3c9.7,0,13.2,6.1,13.2,13.2v17.1
		c0,7.4,0.2,8.5,3.9,8.9l2.8,0.3c0.7,0.5,0.5,2.3-0.2,2.6c-3.7-0.2-6.7-0.3-10.3-0.3c-3.7,0-6.8,0.1-9.5,0.3
		c-0.7-0.3-0.9-2.1-0.2-2.6l2.1-0.3c3.8-0.6,3.9-1.5,3.9-8.9v-14.7c0-6.6-3.2-11-9.7-11c-3.5,0-6.2,1.2-8,2.8
		c-1.8,1.5-2.2,2.1-2.2,5.6v17.2c0,7.4,0.2,8.4,3.9,8.9l2.2,0.3c0.7,0.4,0.5,2.3-0.2,2.6c-3.1-0.2-6.1-0.3-9.6-0.3
		c-3.7,0-6.8,0.1-10.1,0.3c-0.7-0.3-0.9-2.1-0.2-2.6l2.6-0.3c3.8-0.4,3.9-1.5,3.9-8.9V74.1L232.4,74.1z"/>
	<path class="st0" d="M285.8,102.6c-0.7,0-0.7-0.3-0.7-0.5c0.1-3.4,5.3-8.9,11.4-8.9c6,0,7.9,3.6,7.9,6.5c0,1.3-0.3,1.7-0.6,2
		c-0.8,0.6-3.1,1-10.7,1H285.8L285.8,102.6z M305.7,105.7c4.3,0,5.7-0.1,6.1-0.7c0.2-0.4,0.4-1.2,0.4-2.7c0-6.2-5.7-12.2-14.6-12.2
		c-12.3,0-20.6,10.6-20.6,23.2c0,4.5,1.2,9.3,4.3,13.3c3,3.9,8.2,6.8,14.9,6.8c5.3,0,12.7-2.6,16.1-9.5c-0.1-0.9-0.8-1.5-1.8-1.2
		c-3.2,4-6.1,5-9.4,5c-11,0-17-8.8-17-19.2c0-2.6,0.1-2.8,2.8-2.8H305.7L305.7,105.7z"/>
	<path class="st0" d="M194.3,116.7c0,10.8,0.2,12.2,5.8,12.8l3.1,0.3c0.6,0.4,0.4,2.3-0.2,2.6c-5.5-0.2-8.8-0.3-12.7-0.3
		c-3.9,0-7.3,0.1-13.5,0.3c-0.6-0.3-0.8-2.1,0-2.6l3.5-0.3c5.5-0.5,6-2.1,6-12.8V70.8c0-3.2,0-3.3-2.9-3.3h-5.3
		c-4.2,0-9.5,0.2-11.9,2.6c-2.3,2.3-3.3,4.5-4.4,7.1c-0.8,0.6-2.1,0.1-2.5-0.7c1.6-4.6,3-11.2,3.7-15.3c0.3-0.2,1.6-0.3,1.8,0
		c0.6,3.3,3.8,3.2,8.2,3.2h39.3c5.2,0,6.1-0.2,7.6-2.9c0.5-0.2,1.5-0.1,1.7,0.3c-1.1,4.2-1.7,12.5-1.5,15.6c-0.4,0.8-2,0.8-2.5,0.2
		c-0.3-2.6-1-6.4-2.4-7.5c-2.2-1.7-5.9-2.6-11.2-2.6h-6.9c-2.9,0-2.8,0.1-2.8,3.5V116.7L194.3,116.7z"/>
	<path class="st0" d="M37.7,283c0,10.8,0.2,12.1,6.8,12.8l2.8,0.3c0.6,0.5,0.4,2.3-0.2,2.6c-5.8-0.2-9.2-0.3-13.3-0.3
		c-4.3,0-8,0.1-12.5,0.3c-0.6-0.3-0.8-1.9-0.2-2.6l2.2-0.3c6-0.8,6.2-2.1,6.2-12.8v-37.9c0-8.7-0.2-10.6-4.8-11l-3.7-0.4
		c-0.7-0.6-0.6-2.1,0.2-2.6c5.4-0.7,11.8-0.8,20.3-0.8c8.5,0,14.9,1.1,19.7,4.1c4.7,3,8.2,8.3,8.2,15.4c0,9.4-5.9,14.2-10.3,16.3
		c-4.5,2.2-10,3.1-14.2,3.1c-0.7-0.3-0.7-1.8-0.1-2.1c11.1-2,15.1-8.3,15.1-17.2c0-10-5.8-16.4-16.5-16.4c-5.4,0-5.5,0.4-5.5,3.7
		V283L37.7,283z"/>
	<path class="st0" d="M85.5,283.3c0,7.1,1.7,11.8,9.5,11.8c2.8,0,6.1-1.1,8.3-3.1c1.3-1.2,2.1-2.8,2.1-5.9v-16.8
		c0-6.7-0.7-6.9-3.8-8.1l-1.3-0.5c-0.7-0.4-0.7-1.8,0.1-2.3c4.1-0.1,9.7-0.8,12-1.8c0.5,0.1,0.8,0.3,0.9,0.7c-0.2,2-0.3,5.1-0.3,8.9
		v17.2c0,8.1,0.3,11.2,3.2,11.2c1.2,0,2.6-0.2,4-0.5c0.6,0.5,0.7,2.6-0.1,3c-4,0.8-9.9,1.8-13.4,3.8c-0.5,0-1-0.3-1.2-0.7V296
		c0-0.9-0.3-1.4-0.9-1.4c-3.1,1.9-8.1,5.3-14.2,5.3c-9,0-12.4-4.5-12.4-12.8v-17.1c0-6.5,0-7.4-3.1-8.7l-1.2-0.5
		c-0.6-0.5-0.5-2,0.2-2.3c4.7-0.1,8.7-1,11-1.8c0.6,0.1,0.9,0.3,1,0.7c-0.2,1.7-0.3,3.9-0.3,8.9V283.3L85.5,283.3z"/>
	<path class="st0" d="M135.6,268.5c0-4,0.2-5.1,1.2-5.8c1.4-0.9,3.9-1.6,7-1.6c10.2,0,15.6,8.2,15.6,18.8c0,8.8-3.8,17-13.4,17
		c-3.3,0-6.1-1.2-7.8-3.4c-1.7-2.2-2.6-5.3-2.6-8.9V268.5L135.6,268.5z M128,289.5c0,5.3-0.1,7.3-0.2,8.7c0.2,0.4,0.6,0.6,1,0.6
		c0.2,0,0.3,0,0.4-0.1c0.5-0.7,1.3-1.5,2.2-1.5c0.8,0,2.2,0.7,4.3,1.3c2,0.7,4.9,1.3,8.7,1.3c13.7,0,23.6-9.5,23.6-23.2
		c0-11.3-7.9-20.1-19.6-20.1c-5,0-9.1,1.8-11.8,3.4c-0.6,0-1-0.4-1-2.2v-19.4c0-4.5,0.2-9.1,0.4-12.7c-0.2-0.4-0.6-0.6-1-0.6
		c-3.9,2.1-8.8,3.4-11.2,4.3c-0.5,0.3-0.5,1.7,0,2.1l1,0.6c3.1,1.8,3.2,2.5,3.2,8.5V289.5L128,289.5z"/>
	<path class="st0" d="M186,286.9c0,7.4,0.2,8.4,3.9,8.9l2.5,0.3c0.7,0.5,0.5,2.3-0.2,2.6c-3.4-0.2-6.4-0.3-10-0.3
		c-3.7,0-6.8,0.1-9.8,0.3c-0.7-0.3-0.9-2.1-0.2-2.6l2.4-0.3c3.8-0.5,3.9-1.5,3.9-8.9v-46.4c0-6.1-0.1-6.7-3.2-8.5l-1-0.6
		c-0.5-0.3-0.5-1.7,0-2.1c2.6-0.8,7.4-2.4,11.1-4.3c0.4,0,0.8,0.2,1,0.6c-0.1,3.1-0.3,8.2-0.3,12.7V286.9L186,286.9z"/>
	<path class="st0" d="M205,269c0-4,0-4.5-2.8-6.4l-0.9-0.6c-0.4-0.4-0.4-1.5,0.1-1.8c2.4-0.8,8.2-3.5,10.6-5c0.5,0,0.9,0.2,1,0.6
		c-0.2,3.6-0.4,8.5-0.4,12.7v18.5c0,7.4,0.2,8.4,3.9,8.9l2.2,0.3c0.7,0.5,0.5,2.3-0.2,2.6c-3.1-0.2-6.1-0.3-9.6-0.3
		c-3.7,0-6.8,0.1-9.6,0.3c-0.7-0.3-0.9-2.1-0.2-2.6l2.2-0.3c3.8-0.5,3.9-1.5,3.9-8.9V269L205,269z M213.4,244.3
		c0,3.6-2.6,5.2-5.3,5.2c-3.2,0-5.2-2.3-5.2-5c0-3.4,2.6-5.4,5.5-5.4C211.4,239,213.4,241.4,213.4,244.3L213.4,244.3z"/>
	<path class="st0" d="M258,258.3c0.8,0.7,1.5,2.4,1.5,4.1c0,1.8-1,3.8-2.3,3.8c-0.5,0-1-0.2-1.4-0.7c-2.3-2.8-6.1-5.4-10.3-5.4
		c-7.2,0-14.2,5.6-14.2,16.5c0,8,5.5,17.5,16.5,17.5c5.9,0,9-2.7,11.4-6.2c0.8-0.2,1.7,0.5,1.8,1.4c-3.5,7.6-11.2,10.5-17.1,10.5
		c-5.4,0-10.5-1.7-14.1-5.2c-3.6-3.5-6-8.5-6-15.2c0-11.1,7.8-22.9,24.8-22.9C251.3,256.6,255.3,257.1,258,258.3L258,258.3z"/>
	<path class="st0" d="M98.9,330.6c0-10.8-0.2-12.5-6.7-13l-2.6-0.2c-0.6-0.4-0.4-2.3,0.2-2.6c5.8,0.2,9.3,0.3,13.4,0.3
		c4,0,7.5-0.1,12.7-0.3c0.6,0.3,0.8,2.2,0.2,2.6l-2.5,0.2c-6.1,0.5-6.3,2.2-6.3,13v35.9c0,6.5,0.3,9.2,2.2,11.1
		c1.1,1.1,3.1,2.4,11.2,2.4c8.8,0,10.9-0.4,12.6-1.3c2.1-1.2,4.7-4.9,6.8-10.2c0.6-0.5,2.6-0.1,2.6,0.6c0,1.1-2.9,11.6-4.3,14.4
		c-5.3-0.2-15.1-0.3-25.7-0.3h-9.5c-4.3,0-7.6,0.1-13.4,0.3c-0.6-0.3-0.8-2-0.2-2.6l3.1-0.3c6-0.6,6.2-2.1,6.2-12.9V330.6
		L98.9,330.6z"/>
	<path class="st0" d="M152.8,353.6c0-4,0-4.5-2.8-6.4l-0.9-0.6c-0.4-0.4-0.4-1.5,0.1-1.9c2.4-0.8,8.3-3.5,10.6-5.1
		c0.5,0,0.9,0.2,1,0.6c-0.2,3.6-0.4,8.6-0.4,12.8v18.6c0,7.4,0.2,8.5,3.9,9l2.2,0.3c0.7,0.5,0.5,2.3-0.2,2.6
		c-3.1-0.2-6.1-0.3-9.7-0.3c-3.7,0-6.8,0.1-9.7,0.3c-0.7-0.3-0.9-2.1-0.2-2.6l2.2-0.3c3.8-0.5,3.9-1.5,3.9-9V353.6L152.8,353.6z
		 M161.3,328.8c0,3.6-2.6,5.3-5.4,5.3c-3.2,0-5.3-2.3-5.3-5.1c0-3.4,2.6-5.5,5.6-5.5C159.3,323.5,161.3,325.9,161.3,328.8
		L161.3,328.8z"/>
	<path class="st0" d="M183.6,353.1c0-4,0.2-5.2,1.2-5.9c1.4-0.9,3.9-1.6,7-1.6c10.2,0,15.7,8.2,15.7,18.9c0,8.9-3.8,17.1-13.5,17.1
		c-3.3,0-6.1-1.2-7.8-3.4c-1.8-2.2-2.6-5.4-2.6-9V353.1L183.6,353.1z M175.9,374.3c0,5.4-0.1,7.3-0.2,8.8c0.2,0.4,0.6,0.6,1,0.6
		c0.2,0,0.3,0,0.4-0.1c0.5-0.7,1.3-1.5,2.2-1.5c0.8,0,2.2,0.7,4.3,1.3c2.1,0.7,4.9,1.3,8.8,1.3c13.8,0,23.7-9.6,23.7-23.3
		c0-11.3-7.9-20.2-19.7-20.2c-5.1,0-9.2,1.9-11.9,3.4c-0.6,0-1-0.4-1-2.2v-19.5c0-4.5,0.2-9.2,0.4-12.8c-0.2-0.4-0.6-0.6-1-0.6
		c-3.9,2.1-8.9,3.4-11.2,4.3c-0.5,0.3-0.5,1.8,0,2.1l1,0.6c3.1,1.9,3.2,2.5,3.2,8.6V374.3L175.9,374.3z"/>
	<path class="st0" d="M226.5,353.6c0-4,0-4.5-2.8-6.4l-0.9-0.6c-0.4-0.4-0.4-1.5,0.1-1.9c2.4-0.8,7.8-3.5,10.4-5.1
		c0.5,0.1,0.8,0.3,0.8,0.7v6c0,0.5,0.1,0.8,0.3,0.9c3.6-3,7.5-6.2,11.3-6.2c2.6,0,4.6,1.6,4.6,4.1c0,3.4-2.8,4.7-4.4,4.7
		c-1,0-1.5-0.3-2.3-0.7c-1.5-1-3.1-1.6-4.5-1.6c-1.6,0-2.9,0.9-3.7,2.1c-1,1.4-1.3,4.4-1.3,7.9v14c0,7.4,0.2,8.7,4.1,9l3.7,0.3
		c0.7,0.5,0.5,2.3-0.2,2.6c-4.8-0.2-7.8-0.3-11.4-0.3c-3.7,0-6.8,0.1-9.5,0.3c-0.7-0.3-0.9-2.1-0.2-2.6l2-0.3c3.8-0.6,3.9-1.5,3.9-9
		V353.6L226.5,353.6z"/>
	<path class="st0" d="M262.4,373.8c0-4,3-5.6,9.1-7.6c1.9-0.6,3.6-1,4.2-1c0.6,0,1,0.2,1,1.3l-0.2,6.1c0,2.2-0.1,3.6-1.3,4.8
		c-1,1-4.2,2.6-6.3,2.6C263.6,380,262.4,375.6,262.4,373.8L262.4,373.8z M263,366.3c-6.6,2.4-8.6,4.7-8.6,8.8c0,2.9,1.2,5.5,3.2,7.2
		c1.8,1.5,4.2,2.4,7.2,2.4c2.9,0,5.2-1.3,7.4-2.6c2.1-1.1,3.3-2.1,4-2.1c0.6,0,1.2,0.8,1.7,1.4c1.8,2.3,4.2,3.2,6.7,3.2
		c5.1,0,8.7-4,8.7-4.5c0-0.7-0.3-1.3-0.7-1.3c-0.3,0-0.8,0.4-1.3,0.7c-0.6,0.3-1.5,0.6-2.6,0.6c-4,0-4.9-4.2-4.7-9l0.6-17.9
		c0.3-7.7-3.3-12.1-10.7-12.1c-7.5,0-19.2,7.3-19.2,12.7c0,0.9,0.5,1.4,1.4,1.4c1.6,0,4.3-0.7,5.9-2c0.8-0.6,0.9-1.9,1-3.5
		c0.2-3.2,3.7-4.6,6.6-4.6c6.4,0,7.6,5.2,7.5,9l-0.1,4.7c-0.1,1.5-0.2,2.5-1.8,3L263,366.3L263,366.3z"/>
	<path class="st0" d="M302.8,353.6c0-4,0-4.5-2.8-6.4l-0.9-0.6c-0.4-0.4-0.4-1.5,0.1-1.9c2.4-0.8,7.8-3.5,10.4-5.1
		c0.5,0.1,0.8,0.3,0.8,0.7v6c0,0.5,0.1,0.8,0.3,0.9c3.6-3,7.5-6.2,11.3-6.2c2.6,0,4.6,1.6,4.6,4.1c0,3.4-2.8,4.7-4.4,4.7
		c-1,0-1.5-0.3-2.3-0.7c-1.5-1-3.1-1.6-4.5-1.6c-1.7,0-2.9,0.9-3.7,2.1c-1,1.4-1.3,4.4-1.3,7.9v14c0,7.4,0.2,8.7,4.1,9l3.7,0.3
		c0.7,0.5,0.5,2.3-0.2,2.6c-4.8-0.2-7.8-0.3-11.4-0.3c-3.7,0-6.8,0.1-9.5,0.3c-0.7-0.3-0.9-2.1-0.2-2.6l2-0.3c3.8-0.6,3.9-1.5,3.9-9
		V353.6L302.8,353.6z"/>
	<path class="st0" d="M331.8,404.5c0-2.8,1.9-4.1,4.1-4.1h2c1.6,0,2.7-0.7,3.4-1.9c3-4.6,5-9,6-11.4c0.3-0.8,1-3,1-4.4
		c0-2.1-0.4-3.3-1.8-7.1l-8-22.1c-1.8-4.9-2.5-7.3-6.1-8.1l-2.6-0.5c-0.6-0.5-0.5-2.3,0.3-2.6c3.3,0.2,6.4,0.3,9.8,0.3
		c2.8,0,5.7-0.1,9-0.3c0.8,0.3,0.9,2.1,0.2,2.6l-2.6,0.5c-1.4,0.3-2.3,0.6-2.3,1.3c0,1.2,2.4,7.9,3,9.7l3.3,9.5
		c0.6,1.6,2.6,7.1,3,7.3c0.3-0.2,2-3.4,3.8-7.6l3.5-8.1c2.3-5.4,3.6-9.2,3.6-10.3c0-0.7-0.6-1.4-2.5-1.8l-3.2-0.5
		c-0.7-0.5-0.6-2.3,0.2-2.6c3.3,0.2,6.4,0.3,9.1,0.3c2.6,0,5-0.1,7.8-0.3c0.8,0.4,0.9,2,0.2,2.6l-1.8,0.3c-3.4,0.6-5.3,3.6-8.8,10.9
		l-5.8,11.9c-3.4,6.9-11.9,24.9-16.9,36.1c-1.8,3.9-4.2,4.9-6.6,4.9C333.4,408.9,331.8,407.1,331.8,404.5L331.8,404.5z"/>
	<path class="st0" d="M122.4,217.4c-8.6,0-14.1-2.7-16-3.8c-1.2-2.3-2.6-9.5-2.8-14.4c0.5-0.7,2.1-0.9,2.5-0.3
		c1.5,5.2,5.7,15.3,17.6,15.3c8.6,0,12.8-5.6,12.8-11.8c0-4.5-0.9-9.5-8.4-14.4l-9.7-6.4c-5.1-3.4-11.1-9.2-11.1-17.6
		c0-9.7,7.6-17.6,20.9-17.6c3.2,0,6.9,0.5,9.5,1.3c1.3,0.3,2.8,0.6,3.6,0.6c0.9,2.5,1.8,8.2,1.8,12.5c-0.4,0.6-2.1,0.9-2.6,0.3
		c-1.3-4.9-4.1-11.6-14-11.6c-10.1,0-12.2,6.7-12.2,11.4c0,5.9,4.9,10.2,8.7,12.6l8.2,5.1c6.5,4,12.8,9.9,12.8,19.7
		C144.3,209.7,135.7,217.4,122.4,217.4L122.4,217.4z"/>
	<path class="st0" d="M160,186.4c-0.7,0-0.7-0.3-0.7-0.5c0.1-3.4,5.3-8.9,11.4-8.9c5.9,0,7.9,3.6,7.9,6.5c0,1.3-0.3,1.7-0.6,2
		c-0.8,0.6-3.1,1-10.7,1H160L160,186.4z M180,189.5c4.3,0,5.7-0.1,6.1-0.7c0.2-0.4,0.4-1.2,0.4-2.7c0-6.2-5.7-12.2-14.6-12.2
		c-12.3,0-20.6,10.6-20.6,23.2c0,4.5,1.2,9.3,4.3,13.3c3,3.9,8.2,6.8,14.9,6.8c5.3,0,12.7-2.6,16.1-9.5c-0.1-0.9-0.8-1.5-1.8-1.2
		c-3.2,4-6.1,5-9.4,5c-11,0-17-8.8-17-19.2c0-2.6,0.1-2.8,2.8-2.8H180L180,189.5z"/>
	<path class="st0" d="M201.9,206.4c0-4,3-5.5,9-7.6c1.8-0.6,3.6-1,4.2-1c0.6,0,1,0.2,1,1.3l-0.2,6.1c0,2.2-0.1,3.6-1.3,4.8
		c-1,1-4.2,2.6-6.3,2.6C203.1,212.6,201.9,208.2,201.9,206.4L201.9,206.4z M202.5,199c-6.6,2.4-8.5,4.7-8.5,8.7
		c0,2.9,1.2,5.4,3.2,7.2c1.7,1.5,4.2,2.4,7.2,2.4c2.9,0,5.1-1.3,7.4-2.6c2.1-1.1,3.3-2.1,4-2.1c0.6,0,1.2,0.8,1.6,1.4
		c1.7,2.3,4.2,3.2,6.7,3.2c5,0,8.6-4,8.6-4.5c0-0.7-0.3-1.3-0.7-1.3c-0.3,0-0.8,0.4-1.3,0.7c-0.6,0.3-1.5,0.6-2.6,0.6
		c-4,0-4.9-4.2-4.7-8.9l0.6-17.9c0.3-7.7-3.3-12-10.7-12c-7.5,0-19.1,7.3-19.1,12.6c0,0.9,0.5,1.4,1.4,1.4c1.5,0,4.3-0.7,5.8-2
		c0.8-0.6,0.9-1.8,1-3.5c0.2-3.2,3.7-4.6,6.6-4.6c6.4,0,7.6,5.1,7.5,8.9l-0.1,4.7c-0.1,1.5-0.2,2.5-1.7,3L202.5,199L202.5,199z"/>
	<path class="st0" d="M248.5,179.7c-1.7,0-1.8,0.3-1.8,2.5v19.2c0,5.9,0.7,11.4,7.5,11.4c1,0,1.9-0.2,2.8-0.5
		c0.9-0.3,2.3-1.4,2.6-1.4c0.8,0,1.2,1.1,1,1.7c-1.8,2.2-5.5,4.7-10.8,4.7c-8.8,0-10.7-4.9-10.7-11.1v-23.5c0-2.8-0.1-3-2.2-3h-2.9
		c-0.6-0.4-0.7-1.5-0.3-2.2c3-0.9,5.5-2.3,6.6-3.2c1.3-1.2,3.3-4,4.3-6.1c0.5-0.2,1.7-0.2,2.2,0.5v4.6c0,1.9,0.1,2,1.8,2H260
		c1.2,0.9,1,3.7,0.1,4.3H248.5L248.5,179.7z"/>
	<path class="st0" d="M280,179.7c-1.7,0-1.8,0.3-1.8,2.5v19.2c0,5.9,0.7,11.4,7.5,11.4c1,0,1.9-0.2,2.8-0.5c0.9-0.3,2.3-1.4,2.6-1.4
		c0.8,0,1.2,1.1,1,1.7c-1.8,2.2-5.5,4.7-10.8,4.7c-8.8,0-10.7-4.9-10.7-11.1v-23.5c0-2.8-0.1-3-2.2-3h-2.9c-0.6-0.4-0.7-1.5-0.3-2.2
		c3-0.9,5.5-2.3,6.6-3.2c1.3-1.2,3.3-4,4.3-6.1c0.5-0.2,1.7-0.2,2.2,0.5v4.6c0,1.9,0.1,2,1.8,2h11.4c1.2,0.9,1,3.7,0.1,4.3H280
		L280,179.7z"/>
	<path class="st0" d="M309.7,204.3c0,7.4,0.2,8.4,3.9,8.9l2.5,0.3c0.7,0.5,0.5,2.3-0.2,2.6c-3.4-0.2-6.4-0.3-10-0.3
		c-3.7,0-6.8,0.1-9.9,0.3c-0.7-0.3-0.9-2.1-0.2-2.6l2.4-0.3c3.8-0.5,3.9-1.5,3.9-8.9v-46.4c0-6.1-0.1-6.7-3.2-8.5l-1-0.6
		c-0.5-0.3-0.5-1.7,0-2.1c2.6-0.8,7.4-2.4,11.1-4.3c0.4,0,0.8,0.2,1,0.6c-0.1,3.1-0.3,8.2-0.3,12.7V204.3L309.7,204.3z"/>
	<path class="st0" d="M328.2,186.4c-0.7,0-0.7-0.3-0.7-0.5c0.1-3.4,5.3-8.9,11.4-8.9c6,0,7.9,3.6,7.9,6.5c0,1.3-0.3,1.7-0.6,2
		c-0.8,0.6-3.1,1-10.7,1H328.2L328.2,186.4z M348.1,189.5c4.3,0,5.7-0.1,6.1-0.7c0.2-0.4,0.4-1.2,0.4-2.7c0-6.2-5.7-12.2-14.6-12.2
		c-12.3,0-20.6,10.6-20.6,23.2c0,4.5,1.2,9.3,4.3,13.3c3,3.9,8.2,6.8,14.9,6.8c5.3,0,12.7-2.6,16.1-9.5c-0.1-0.9-0.8-1.5-1.8-1.2
		c-3.2,4-6.1,5-9.4,5c-11,0-17-8.8-17-19.2c0-2.6,0.1-2.8,2.8-2.8H348.1L348.1,189.5z"/>
	<path class="st0" d="M19.8,405.6c4.1,0.2,6.3,1.1,7.9,2.5c1.5,1.5,1.5,3.7,1.5,5.3v45.2c0,3.7-0.1,5.5-0.8,6.8
		c-1.3,2.7-4,3.5-9.4,3.6l0,2.6h29.7v-3.2c-5.7-0.3-8.3,0.5-9.6-0.6c-1.8-1.3-2.1-3.5-2.1-8.8v-21.4l9.4-0.8
		c2.1,0.1,5.2,0.2,7.2,3.1c1.4,2.1,1.4,4.8,1.4,7.1h3.2V424H55c-0.1,2.3-0.2,5.3-2.4,7.5c-1.8,1.8-3.9,1.9-6,1.9l-9.7,0.8v-26.9
		l15.2-0.8c4.4,0.1,7.7,0.2,10.7,3.3c2.3,2.5,3.7,6.4,4.9,9.9h3l-3.3-16.6H19.6L19.8,405.6L19.8,405.6z"/>
	<path class="st1" d="M107.3,450c0-12.4-9-21.9-20.9-21.9C74,428,65,437.6,65,450.7c-0.1,13.2,8.4,22.3,20.9,22.3
		C98.5,472.8,107.3,463,107.3,450L107.3,450z M98.5,450.6c0,8.5-2.4,19.5-12.5,19.5c-9.9,0-12.5-11-12.4-19.4
		c0-8.3,2.4-19.8,12.4-19.9C96.1,430.8,98.5,442,98.5,450.6L98.5,450.6z"/>
	<path class="st1" d="M401.6,449.4c0-12.4-9-21.9-20.9-21.9c-12.4-0.1-21.4,9.4-21.4,22.5c-0.1,13.2,8.4,22.3,20.9,22.3
		C392.7,472.2,401.6,462.4,401.6,449.4L401.6,449.4z M392.8,450c0,8.5-2.4,19.5-12.5,19.5c-9.9,0-12.5-11-12.5-19.4
		c0-8.3,2.4-19.8,12.5-19.9C390.3,430.2,392.7,441.4,392.8,450L392.8,450z"/>
	<path class="st0" d="M272.9,461.3c0-4,3-5.6,9.1-7.6c1.9-0.6,3.6-1,4.2-1c0.6,0,1,0.2,1,1.3l-0.2,6.1c0,2.2-0.1,3.6-1.3,4.8
		c-1,1-4.2,2.6-6.3,2.6C274.1,467.5,272.9,463.1,272.9,461.3L272.9,461.3z M273.5,453.8c-6.6,2.4-8.6,4.7-8.6,8.8
		c0,2.9,1.2,5.5,3.2,7.2c1.8,1.5,4.2,2.4,7.2,2.4c2.9,0,5.2-1.3,7.4-2.6c2.1-1.1,3.3-2.1,4-2.1c0.6,0,1.2,0.8,1.7,1.4
		c1.8,2.3,4.2,3.2,6.7,3.2c5.1,0,8.7-4,8.7-4.5c0-0.7-0.3-1.3-0.7-1.3c-0.3,0-0.8,0.4-1.3,0.7c-0.6,0.3-1.5,0.6-2.6,0.6
		c-4,0-4.9-4.2-4.7-9l0.6-17.9c0.3-7.7-3.3-12.1-10.7-12.1c-7.5,0-19.2,7.3-19.2,12.7c0,0.9,0.5,1.4,1.4,1.4c1.5,0,4.3-0.7,5.9-2
		c0.8-0.6,0.9-1.9,1-3.5c0.2-3.2,3.7-4.6,6.6-4.6c6.4,0,7.6,5.2,7.5,9l-0.1,4.7c-0.1,1.5-0.2,2.5-1.8,3L273.5,453.8L273.5,453.8z"/>
	<path class="st0" d="M318.1,434.4c-1.8,0-1.9,0.3-1.9,2.5v19.3c0,6,0.7,11.4,7.5,11.4c1,0,2-0.2,2.8-0.5c0.9-0.3,2.3-1.4,2.6-1.4
		c0.8,0,1.2,1.1,1,1.8c-1.9,2.2-5.6,4.7-10.8,4.7c-8.9,0-10.7-5-10.7-11.1v-23.6c0-2.8-0.1-3-2.2-3h-2.9c-0.6-0.4-0.7-1.5-0.3-2.2
		c3-0.9,5.6-2.3,6.6-3.2c1.3-1.2,3.3-4,4.3-6.1c0.5-0.2,1.8-0.2,2.2,0.5v4.6c0,1.9,0.1,2,1.9,2h11.4c1.2,0.9,1,3.7,0.1,4.3H318.1
		L318.1,434.4z"/>
	<path class="st0" d="M409.5,442.2c0-6.1-0.1-6.7-3.2-8.6l-1-0.6c-0.5-0.3-0.5-1.5,0-1.8c2.6-0.8,7.4-2.4,11.1-4.3
		c0.4,0,0.8,0.2,1,0.6c-0.1,3.1-0.3,8-0.3,12.5v-7.3c0,0.9,0.1,1.8,0.4,2c3.7-2.9,8.7-5.4,13.9-5.4c9.8,0,13.3,6.1,13.3,13.3v17.2
		c0,7.4,0.2,8.6,3.9,9l2.8,0.3c0.7,0.5,0.5,2.3-0.2,2.6c-3.7-0.2-6.7-0.3-10.3-0.3c-3.7,0-6.8,0.1-9.6,0.3c-0.7-0.3-0.9-2.1-0.2-2.6
		l2.1-0.3c3.8-0.6,3.9-1.5,3.9-9v-14.7c0-6.6-3.2-11-9.8-11c-3.5,0-6.2,1.2-8,2.8c-1.9,1.5-2.2,2.1-2.2,5.7v17.3
		c0,7.4,0.2,8.5,3.9,9l2.2,0.3c0.7,0.4,0.5,2.3-0.2,2.6c-3.1-0.2-6.1-0.3-9.7-0.3c-3.7,0-6.8,0.1-10.1,0.3c-0.7-0.3-0.9-2.1-0.2-2.6
		l2.6-0.3c3.8-0.4,3.9-1.5,3.9-9V442.2L409.5,442.2z"/>
	<path class="st0" d="M342.7,441.8c0-4,0-4.5-2.8-6.4l-0.9-0.6c-0.4-0.4-0.4-1.5,0.1-1.9c2.4-0.8,8.3-3.5,10.6-5.1
		c0.5,0,0.9,0.2,1,0.6c-0.2,3.6-0.4,8.6-0.4,12.8v18.6c0,7.4,0.2,8.5,3.9,9l2.2,0.3c0.7,0.5,0.5,2.3-0.2,2.6
		c-3.1-0.2-6.1-0.3-9.7-0.3c-3.7,0-6.8,0.1-9.7,0.3c-0.7-0.3-0.9-2.1-0.2-2.6l2.2-0.3c3.8-0.5,3.9-1.5,3.9-9V441.8L342.7,441.8z
		 M351.1,416.9c0,3.6-2.6,5.3-5.4,5.3c-3.2,0-5.3-2.3-5.3-5.1c0-3.4,2.6-5.5,5.6-5.5C349.2,411.6,351.1,414,351.1,416.9L351.1,416.9
		z"/>
	<path class="st0" d="M169.5,442.5c0-6.1-0.1-6.7-3.2-8.6l-1-0.6c-0.5-0.3-0.5-1.8,0-2.1c2.6-0.8,7.4-2.4,11.1-4.3
		c0.4,0,0.8,0.2,1,0.6c-0.1,3.1-0.4,7.2-0.4,11.8l0-6.3c0,0.9,0.1,1.8,0.4,2c3.7-2.9,8.7-5.4,13.9-5.4c9.8,0,13.3,6.1,13.3,13.3
		v17.2c0,7.4,0.2,8.6,3.9,9l2.8,0.3c0.7,0.5,0.5,2.3-0.2,2.6c-3.7-0.2-6.7-0.3-10.3-0.3c-3.7,0-6.8,0.1-9.6,0.3
		c-0.7-0.3-0.9-2.1-0.2-2.6l2.1-0.3c3.8-0.6,3.9-1.5,3.9-9v-14.7c0-6.6-3.2-11-9.8-11c-3.5,0-6.2,1.2-8,2.8
		c-1.9,1.5-2.2,2.1-2.2,5.7v17.3c0,7.4,0.2,8.5,3.9,9l2.2,0.3c0.7,0.4,0.5,2.3-0.2,2.6c-3.1-0.2-6.1-0.3-9.7-0.3
		c-3.7,0-6.8,0.1-10.1,0.3c-0.7-0.3-0.9-2.1-0.2-2.6l2.6-0.3c3.8-0.4,3.9-1.5,3.9-9V442.5L169.5,442.5z"/>
	<path class="st0" d="M123.2,455.5c0,7.1,1.8,11.9,9.6,11.9c2.8,0,6.1-1.1,8.4-3.1c1.3-1.2,2.1-2.8,2.1-6v-16.9
		c0-6.7-0.7-6.9-3.8-8.1l-1.3-0.5c-0.7-0.4-0.7-1.9,0.1-2.3c4.1-0.1,9.8-0.8,12.1-1.9c0.5,0.1,0.8,0.3,0.9,0.7c-0.2,2-0.3,5.2-0.3,9
		v17.3c0,8.2,0.3,11.2,3.2,11.2c1.2,0,2.6-0.2,4-0.5c0.6,0.5,0.7,2.6-0.1,3c-4,0.8-10,1.9-13.5,3.8c-0.5,0-1-0.3-1.2-0.7v-4.2
		c0-0.9-0.3-1.4-0.9-1.4c-3.1,2-8.2,5.4-14.2,5.4c-9.1,0-12.5-4.5-12.5-12.9V442c0-6.5,0-7.4-3.1-8.8l-1.2-0.5
		c-0.6-0.5-0.5-2,0.2-2.3c4.7-0.1,8.8-1,11-1.9c0.6,0.1,0.9,0.3,1,0.7c-0.2,1.8-0.3,3.9-0.3,9V455.5L123.2,455.5z"/>
	<path class="st1" d="M245.8,459.7c0,3.5-3.4,7.6-11.4,7.6c-9.2,0-13.6-9.8-13.6-17.8c0-8,3.7-16.2,12.8-16.2
		c6.9,0,12.2,2.7,12.2,9.9V459.7L245.8,459.7z M245.8,433.2c-3.3-2.2-7.7-4.5-11.7-4.5c-12.1,0-21,6.6-20.8,24.1
		c0.1,9.9,7.6,19.4,18.2,19.4c5.6,0,10.9-2.6,14.2-6.7h0.2v5.3c0,0.7,0.3,1.4,1.1,1.4c0.9,0,3.6-0.8,6.1-0.8c3.6,0,5.5,0.1,5.5-0.5
		c0-0.8,0.4-2-0.3-2.1c-3.6,0.6-4.9-0.4-4.9-1.6v-65.9c0-1-1-1.9-1.6-1.9c-2.2,0-4.5,2.6-11.9,4.4c-0.5,0.1,0.3,2.4-0.6,2.1
		c1.5,0.9,6.6-1.1,6.6,4.7V433.2L245.8,433.2z"/>
	<path class="st0" d="M142.1,105.9c-0.4,0.2-0.4,0.7-0.4,1.1c-0.1,0-0.1,0.1-0.1,0.2c-0.1,0.2,0.2,0.3,0.1,0.5
		c-0.3,0.1-0.3,0.5-0.5,0.7c0.2,0.4-0.3,0.8-0.2,1.2c0.2,0.5-0.4,0.9-0.3,1.4c-0.1,0.3-0.3,0.5-0.3,0.8c-0.2,0.1-0.5,0.1-0.5,0.4
		l0,0.2c-0.1,0.2-0.4,0.5-0.3,0.9c-0.1,0.6-0.8,1.1-1,1.6c0.2,0.1,0,0.3,0,0.4c-0.2,0.3-0.3,0.5-0.3,0.9c-0.7,0.6-0.8,1.5-1.4,2.3
		c-0.5,0.2-0.3,0.7-0.7,0.9c-0.1,0.4-0.3,0.7-0.6,1c-0.3,0.5-0.7,0.9-1,1.3c0.1,0.4-0.5,0.7-0.5,1.1c-0.3,0.3-0.5,0.8-0.9,0.9
		c-0.4,0.6-1.1,0.9-1.5,1.5c-0.2,0-0.2,0.2-0.3,0.3c-0.4,0.2-0.5,0.9-1.1,0.9c-0.3,0.6-0.9,1.1-1.6,1.2c-0.2,0.5-0.7,0.5-1,0.8
		c-0.2,0-0.3,0.3-0.5,0.3c-0.3,0.1-0.3,0.7-0.7,0.7c-0.1,0.3-0.4,0.1-0.5,0.2c-0.5,0.5-1.4,0.5-1.7,1.2c-0.5,0.6-1.4,0.3-1.9,0.9
		c-0.2,0-0.3,0.1-0.3,0.3c-0.5,0.1-0.7,0.7-1.2,0.6c11.6,3.3,21.5,6.3,21.5,6.3v-34.1c-0.1,0.2-0.1,0.4-0.1,0.6
		C142.4,105.5,142.2,105.7,142.1,105.9L142.1,105.9z"/>
	<path class="st0" d="M88.9,122.6c-0.2-0.6-0.2-1.2-0.4-1.8c-0.3-1-0.8-2-0.8-3.1c0.1-0.4,0-0.8-0.3-1c0-0.4-0.1-1-0.5-1.2
		c-0.5,0-0.7-0.3-1.1-0.3c-0.6-0.3-1.3-0.5-2-0.8c-0.3-0.3-0.8-0.3-1.2-0.6c-0.4,0-0.8-0.3-1.2-0.3c-0.3-0.2-0.6-0.3-0.9-0.5
		c0.1-0.2-0.2-0.4,0-0.5c0-0.1-0.3-0.1-0.2-0.2c-0.4-0.4-1-0.4-1.5-0.3c-0.5-0.3-1.1-0.3-1.4-0.7c-0.4-0.2-1-0.3-1.4-0.6l0,0
		c-0.3-0.3-0.8-0.5-1.2-0.8c-0.2,0-0.3-0.1-0.3-0.3c-1.1-0.5-1.7-1.5-2.9-1.7c-0.2-0.3-0.6-0.4-0.7-0.8c-0.1,0-0.3-0.1-0.4-0.3
		c0-0.2-0.2-0.2-0.3-0.3c-0.3,0-0.3-0.5-0.7-0.5c-0.4-0.3-0.7-0.5-1.2-0.7c-0.5-0.3-0.4-0.9-1-1.1c0,0.3-0.2,0-0.3,0.3
		c0.4,0.2,0,0.5,0.1,0.7c-0.1,0.1-0.1,0.3-0.1,0.5c0.2,0.1,0.1,0.3,0.3,0.4c0,0.7,0.1,1.4,0.3,2c-0.1,0.6,0,1.2,0.2,1.7
		c0.2,0.3-0.3,0.5,0.1,0.7c0,0.5,0.4,0.7,0.2,1.2c0.8,0.3,0.4,1.3,0.9,1.9c-0.1,0.3,0.2,0.5,0.1,0.8c0.4,0.4,0.2,1.1,0.6,1.5
		c0.3,0.9,0.7,1.8,1,2.8c-0.2,0.2,0.1,0.3,0.2,0.3c0.3,0.5,0.7,1,0.8,1.6c0.3,0.3,0.5,0.7,0.7,1.1c0,0.3,0.3,0.5,0.5,0.8
		c0,0.3,0.3,0.4,0.3,0.7c0.2,0.3,0.5,0.5,0.6,0.8c0,0.5,0.6,0.8,0.5,1.3c5-1.2,8.8-2,10.3-2c0.8,0,2.4,0.3,4.6,0.7
		c-0.1-0.2-0.2-0.5-0.2-0.8C89,123.1,89,122.9,88.9,122.6L88.9,122.6z"/>
	<path class="st0" d="M72.9,125.5c-0.1-0.1-0.2-0.3-0.2-0.5c-0.7-0.5-1.3-1.3-1.9-1.9c-0.2-0.4-0.6-0.7-0.7-1.2
		c-0.2-0.2-0.3-0.5-0.5-0.7c0.1-0.3-0.4-0.3-0.3-0.7c-0.1-0.1-0.1-0.2-0.1-0.4c-0.3-0.1-0.6-0.3-0.6-0.6c-0.1-0.2-0.3-0.5-0.5-0.7
		v-0.2c-0.2-0.2-0.4-0.4-0.3-0.7c-0.4-0.3-0.3-0.8-0.6-1c0.1-0.2-0.1-0.4-0.1-0.6c-0.4-0.3-0.3-0.9-0.4-1.4
		c-0.3-0.1-0.2-0.3-0.3-0.5c0.1-0.2-0.2-0.2-0.2-0.3c0.1-0.1-0.1-0.1-0.1-0.2c0.1-0.3-0.2-0.4-0.2-0.7c-0.2-0.3-0.4-0.7-0.3-1.1
		c-0.3-0.1-0.2-0.5-0.2-0.7c-0.2-0.4-0.6-0.8-0.4-1.2c0-0.3-0.3-0.6-0.2-0.9c0-0.1-0.5-0.2-0.2-0.4c0-0.4-0.1-0.7-0.1-1
		c-0.3-0.4-0.2-0.9-0.4-1.4l-0.2-0.2c0.3,0,0-0.4,0-0.5c0-0.3,0-0.6-0.3-0.8c0-0.4-0.1-0.9-0.1-1.4c-0.2-0.4-0.1-0.7-0.3-1.1
		c-0.1-0.5,0.4-1.1-0.2-1.4c0.1-0.2,0.1-0.4,0.1-0.7c-0.1-0.1-0.1-0.3-0.1-0.4c-0.2-0.3-0.2-0.7-0.6-0.7c-0.3-0.1-0.2-0.3-0.2-0.5
		c-0.2-0.2-0.6-0.3-0.7-0.6c-0.4-0.1-0.4-0.6-0.5-0.8c-0.3-0.3-0.1-0.6-0.4-0.9c-0.2-0.3-0.6-0.5-0.7-0.9c-0.1-0.1-0.3-0.3-0.2-0.6
		c-0.5-0.6-1.1-1.1-1.3-1.8c-0.4-0.2-0.3-0.6-0.5-1c-0.3-0.4-0.6-0.7-0.6-1.2c-0.2-0.1-0.1-0.3-0.2-0.5c-0.3-0.5-0.6-1.2-1.2-1.5
		c-0.5-0.1-0.3,0.4-0.7,0.5c-0.2,0.3,0,0.5,0,0.8c-0.2,0.8,0,1.6-0.2,2.4c-0.1,0.6-0.2,1.2-0.1,1.8c0,0.5,0.1,0.9,0,1.3
		c0,0.6-0.1,1.4,0,2c0.3,0.3-0.1,0.7,0.3,0.9c0.2,0.4-0.1,0.7,0,1.1c-0.1,0.3,0.1,0.6,0,0.8c-0.3,0.9,0.8,1.4,0.5,2.2
		c0.1,0.4,0.1,0.7,0.3,1c0,0.4,0.4,0.6,0.1,1c0,0.1,0.1,0,0.2,0c0.4,0.5,0.2,1.1,0.6,1.6c0,0.6,0.4,1.2,0.5,1.8
		c0.2,0.8,0.6,1.5,0.9,2.3c0.3,0.3,0.3,0.8,0.6,1.1c0.1,0.5,0.3,1.1,0.7,1.6c0.1,0.5,0.1,1,0.4,1.5c0.3,0.6,0.8,0.9,1,1.5
		c0.2,0.7,0.7,1.2,1,1.9c0.1,0.4,0.7,0.6,0.6,1.1c0.2,0.3,0.6,0.6,0.8,0.9c0.2,0.3,0.6,0.6,0.5,1.1c0.2,0.4,0.6,0.5,0.9,0.6
		c0.1,0.1,0.3,0.2,0.4,0.3c0.1,0.9,1.1,1.4,1.5,2.2c0.4,0.3,0.8,0.6,1.1,1.1c0.4,0.3,0.7,0.7,1.1,1c1.6-0.4,3.1-0.8,4.5-1.2
		c0,0,0,0,0,0C73.2,125.7,73,125.8,72.9,125.5L72.9,125.5z"/>
	<path class="st0" d="M69.1,78.2c0.5-0.4,0.8-1.1,1.2-1.6c0.7-0.5,1-1.5,1.7-2c0.3-0.4,0.7-0.6,1-0.9c-0.2-0.5,0.4-0.3,0.5-0.6
		c0.3-0.4-0.3-0.7,0-1.1c-0.2-0.2-0.4-0.5-0.6-0.7c0-0.2,0.2-0.2,0-0.4c-0.3-0.1-0.6-0.5-0.6-0.9c0-0.3-0.1-0.5-0.1-0.9
		c0-0.3-0.3-0.4-0.3-0.8c-0.5-0.2-0.2-0.7-0.2-1c-0.1-0.1-0.1-0.4,0-0.5c-0.1,0-0.1,0-0.1,0c0-0.1-0.1-0.2,0-0.3
		c-0.3-0.3-0.4-0.8-0.3-1.2c-0.1-0.3,0-0.5,0.2-0.7c-0.2-0.2,0-0.4-0.1-0.6c-0.3-0.2-0.3-0.6-0.7-0.8c-0.5-0.1-0.8,0.3-1.1,0.6
		c-0.3,0.1-0.8,0-1.1,0.5c-0.7-0.1-0.2,0.8-0.8,0.8c-0.4,0.5-0.9,0.8-1.2,1.3c-0.3,0.3-0.6,0.8-1.1,0.8l0,0.2
		c-0.5,0.5-1.1,1.2-1.5,1.8c-0.4,0.6-0.6,1.1-1.1,1.6c0,0.1,0,0.2-0.1,0.2c0,0.3-0.3,0.6-0.4,0.8c-0.1,0.4-0.4,0.8-0.5,1.1
		c-0.1,0.2-0.1,0.4-0.3,0.4c-0.3,0.1-0.3,0.4-0.5,0.6l-0.1,1.3c-0.3,0.2-0.3,0.5-0.6,0.7c-0.1,0.3,0,0.5-0.1,0.8
		c-0.1,0.4-0.1,0.7-0.2,1.1c-0.2,1-0.6,2-0.5,3c-0.2,0.3,0,0.6-0.1,1c0.2,0.5,0,0.9,0.1,1.4c0.2,0.5,0.4,1,0.4,1.6
		c0.6,0.8,0.3,1.7,0.7,2.5c-0.1,0.6,0.4,1.1,0.4,1.7c0.3,0.6,0.7,1.2,1.1,1.7C61.8,90.8,62,90.9,62,91c0.2,0.5,0.1,1,0.4,1.4
		c0.3,0.6,0.9,0.4,1.3,0.6c-0.1-0.4,0.3-0.2,0.5-0.3c0.2-0.3,0.2-0.6,0.1-1c-0.3-0.2,0-0.6-0.4-0.7c0.1-0.7,0.5-1.3,0.6-2.1
		c0.5-0.9,0.1-2,0.9-2.8c0.1-0.1,0.2,0,0.3,0c0-0.2,0.3-0.5,0.3-0.7c0.1-0.1,0.2-0.1,0.2-0.3c0-0.2-0.3-0.1-0.4-0.2
		c0-0.3,0.1-0.7,0.3-1c0.2-0.3,0.3-0.6,0.5-1c0-0.2,0.1-0.5,0.2-0.7c0-0.4,0.5-0.6,0.6-1c-0.1-0.3,0.3-0.4,0.2-0.7
		C68.6,79.8,68.5,78.9,69.1,78.2L69.1,78.2z"/>
	<path class="st0" d="M91.8,92.1c0.6-0.7,1-1.5,1.2-2.5c-0.1-0.2-0.4-0.1-0.6-0.3c-0.1-0.6-0.9-0.5-1.3-0.6
		c-0.5,0.2-0.7-0.5-1.2-0.3c-0.5-0.4-1-0.6-1.5-0.9c-0.4-0.3-0.7-0.6-1.1-0.9c-0.3,0-0.5-0.3-0.7-0.1c-0.1-0.1-0.2-0.1-0.2-0.3
		c-0.3-0.1-0.5-0.3-0.6-0.5c0.1-0.2-0.2-0.1-0.2-0.3c-0.3-0.1,0.1-0.3-0.1-0.4c0-0.5-0.6-0.2-0.8-0.4c-0.2,0-0.3-0.3-0.6-0.2
		c-0.1,0-0.1-0.1-0.2-0.2c-0.3,0-0.4-0.3-0.6-0.5c-0.5-0.1-0.5-0.7-0.9-0.7c-0.2-0.5-0.8-0.6-1.1-1.1c-0.4-0.2-0.5-0.8-0.9-0.9
		c-0.1-0.3-0.4-0.3-0.6-0.5c0.1-0.3-0.2-0.4-0.3-0.5c-0.4-0.2-0.9-0.6-0.9-1c-0.5-0.5-1.1-0.7-1.5-1.3h-0.2c-0.2-0.1-0.4,0-0.6-0.1
		c-0.4,0.2-0.6,0.6-1,0.9c-0.1,0.4-0.6,0.5-0.7,0.8c-0.1,0.2-0.4,0.2-0.4,0.5c-0.1,0.1-0.2,0.2-0.3,0.3c-0.1,0.3-0.3,0.7-0.4,1.1
		c-0.3,0-0.1,0.4-0.5,0.4c-0.1,0.4-0.8,0.7-0.6,1.3c-0.1,0.3-0.3,0.5-0.4,0.8c-0.1,0.3-0.4,0.3-0.5,0.6c0.2,0.3-0.2,0.5-0.2,0.8
		c-0.3,0.4-0.5,0.9-0.5,1.4l-0.1,0.1c0,0,0,0.1,0,0.1c-0.1,0-0.1,0.2-0.1,0.2c-0.2,0.4-0.4,0.7-0.5,1.2c-0.1,0.6-0.2,1.2-0.6,1.6
		c-0.3,0.5,0,1-0.3,1.4c-0.3,0.3-0.1,0.7-0.2,1c0.1,0.3-0.2,0.5-0.2,0.7c-0.2,0.6,0.1,1.2-0.3,1.7c0,0.1,0,0.4,0.1,0.5
		c0,0,0,0.1-0.1,0.1c0,0.3,0,0.7-0.1,1c0.2,0.2,0.1,0.4,0.1,0.5c0.2,0.3,0.1,0.7,0.1,1c0.3,0.3,0,0.6,0.1,0.8c0.3,0.3,0.2,0.8,0.6,1
		c0.2,0.4,0.5,0.6,0.8,0.9c0.7,0.1,0.6,0.9,1.1,1.2c0.2,0.3,0.5,0.4,0.6,0.7c0.4,0.1,0.5,0.8,1,0.9c0.2,0.4,0.6,0.3,0.9,0.6
		c0.3,0.1,0.7,0.5,1,0.7c0.5,0.3,0.8,0.8,1.3,1c0.9,0.3,1.4,1.1,2.4,1.4c0.3,0.3,0.8,0.3,1.1,0.6c0.3,0.4,0.8,0.5,1.2,0.8
		c0.5,0,0.8,0.3,1.2,0.5c0.6,0.1,0.9,0.9,1.6,0.9c0.8,0.4,1.6,0.8,2.4,1.1l0,0.1l0.2,0c0.7,0.4,1.5,0.6,2.3,0.8
		c-0.1-0.8,0.3-1.4,0.1-2.1c0.1-0.9-0.3-1.7,0.1-2.6c0.1-0.1,0.2-0.2,0.2-0.4c0.3-0.3-0.2-0.5,0.1-0.8c0-0.9-0.1-1.7,0.1-2.6
		c0.2-0.3,0.4-0.7,0.4-1.1c0.2-0.3,0.1-0.7,0.3-1.1c0-0.1-0.1-0.2,0.1-0.3c-0.3-0.3,0.1-0.6,0-0.9c0.1-0.5,0.5-0.9,0.5-1.4
		c0.1-0.2,0.2-0.5,0.5-0.6c0,0,0.1,0.1,0.1,0.1c0.1-0.5,0.9-0.5,0.8-1.1c-0.1-0.1-0.3-0.1-0.4-0.1c-0.3-0.1,0.1-0.4-0.2-0.4l0.3-1.1
		c-0.1-0.4,0.2-0.8,0.3-1.2c0-0.5,0.3-0.9,0.4-1.4c0-0.1,0.1-0.1,0.1-0.1C91.7,92.4,91.8,92.3,91.8,92.1L91.8,92.1z"/>
	<path class="st0" d="M84.7,38.5C78.4,38.5,26.5,23,26.5,23v57.6v0.5v57.6c0,0,21.8-6.5,38.9-11.1c0,0,0-0.1-0.1-0.1
		c-0.2,0-0.1-0.2-0.3-0.2c-0.1-0.3-0.5-0.3-0.6-0.6c-0.4-0.2-0.4-0.6-0.8-0.8c0-0.3-0.5-0.3-0.5-0.6c-0.5-0.1-0.6-0.8-1-1.1
		c-0.5-0.2-0.5-0.8-0.9-1.1c0.1-0.3-0.4-0.2-0.3-0.6c0-0.1-0.2-0.1-0.3-0.2c-0.2-0.2-0.2-0.5-0.5-0.7c0-0.1,0.2-0.3,0-0.3
		c-0.4-0.1-0.6-0.5-0.7-0.9c-0.5-0.3-0.5-0.9-0.9-1.2c0.1-0.1,0-0.2-0.1-0.2h-0.1c0-0.1,0.1-0.2,0-0.3c-0.2,0-0.1-0.3-0.3-0.3
		c-0.2-0.1,0.3-0.4-0.1-0.4c-0.3-0.1-0.2-0.5-0.5-0.6c0.1-0.3-0.4-0.3-0.2-0.5c-0.1,0-0.3-0.2-0.3-0.3c-0.2-0.1-0.2-0.4-0.3-0.5
		c0.1-0.4-0.7-0.5-0.3-0.9c0-0.1-0.1-0.1-0.1-0.2c0.1-0.1-0.2-0.2-0.2-0.4c0-0.1,0-0.2,0-0.2c-0.3-0.1-0.2-0.4-0.4-0.5
		c-0.2-0.2-0.2-0.5-0.3-0.7c-0.1-0.3,0-0.7-0.3-0.9c-0.1-0.3-0.2-0.6-0.3-0.8c0-0.1,0.1-0.3-0.1-0.3c-0.2-0.4-0.2-1-0.5-1.4
		c-0.2-0.3,0-0.7-0.3-0.9c0.2-0.4-0.2-0.6-0.1-1.1c-0.3-0.2-0.2-0.5-0.5-0.8c-0.1-0.3-0.3-0.5-0.3-0.9c-0.2-0.3-0.2-0.6-0.3-0.9
		c0-0.4-0.3-0.8-0.2-1.2c-0.6-0.1,0.1-0.7-0.4-1c-0.1-0.3-0.1-0.7-0.3-1.1c0.1-0.6-0.3-0.8-0.3-1.4c0-0.1-0.1-0.3-0.1-0.4
		c-0.2-0.1,0-0.5-0.1-0.7c0-0.2,0-0.5-0.1-0.7c-0.1-0.3,0.2-0.6-0.1-0.8c0-0.1,0.1-0.3,0-0.3c0.3-0.3-0.1-0.8,0.1-1.1
		c0.1-0.3,0-0.5,0-0.9c-0.2-0.3,0-0.6-0.2-0.9c0-0.3-0.4-0.3-0.1-0.6c-0.5-0.4,0.2-0.9-0.1-1.4c0-0.1,0.1-0.3,0-0.5
		c0.3-0.3,0.2-0.7,0.2-1.1c0-0.2,0.1-0.4,0.2-0.6c-0.1,0-0.1-0.2-0.1-0.2v-0.7c0.2-0.3-0.1-0.7,0.2-1c0.1-0.3-0.2-0.7,0-1
		c-0.1-0.2,0.3-0.3,0.1-0.5c0-0.1,0.1-0.3,0-0.5c0.3-0.3-0.2-0.7,0.2-0.9c-0.3-0.1,0.1-0.3-0.1-0.5c0.3-0.4,0-0.8,0.2-1.2
		c0,0,0.1,0,0.1,0c0-0.2,0-0.3,0.1-0.5c-0.1-0.2,0.1-0.2,0-0.4c0-0.3,0.3-0.7,0.3-1.1c0.2,0,0-0.2,0.1-0.3c0.1-0.2,0.1-0.5,0.3-0.7
		c0.1-0.5,0.1-0.9,0.4-1.4c-0.1-0.2,0.2-0.2,0.1-0.4c0.1-0.4,0.2-0.7,0.5-1.1c-0.2-0.2,0.1-0.4,0-0.6c0.1-0.5,0.1-0.8,0.2-1.2
		c0-0.5,0.5-0.8,0.5-1.3c0.5-0.5,0.3-1.4,1-1.9c0.1-0.2,0.3-0.3,0.4-0.5c0.2-0.2,0.4-0.5,0.5-0.8c0.6-0.1,0.4-0.9,0.9-1.1
		c0.2-0.2,0.1-0.5,0.3-0.6c0.1-0.4,0.5-0.6,0.7-1c-0.1-0.2,0.1-0.1,0.1-0.2c0.1-0.3,0.3-0.5,0.4-0.7c0.3,0,0-0.4,0.3-0.4
		c0-0.3,0.3-0.4,0.5-0.5c0-0.1-0.2-0.1-0.1-0.3c0.4-0.3,0.6-0.7,0.9-1.1c0-0.5,0.8-0.5,0.7-1c0.2-0.1,0.2-0.3,0.4-0.5
		c-0.2-0.2,0.2-0.1,0.2-0.3c0.2-0.2,0.1-0.6,0.5-0.7c0.3-0.2,0.3-0.6,0.6-0.6c0.1-0.5,0.4-1.1,1-1.2c0.3-0.3,0.8-0.5,0.9-0.9
		c0.2-0.5,0.7-0.3,0.8-0.8c0.3-0.6,1.1-0.8,1.5-1.4c0.3-0.1,0.5-0.3,0.7-0.5c0.4-0.3,0.9-0.4,1.3-0.7c0.5,0.2,0.4-0.4,0.8-0.5
		c0,0,0-0.1,0.1-0.1c0.3,0.1,0.2-0.4,0.5-0.4c0.4-0.5,1.1-0.4,1.5-0.8c0.4-0.2,0.9-0.2,1.3-0.6c0.2-0.3,0.6-0.5,0.9-0.8
		c0.4-0.2,0.9-0.3,1.3-0.5c0.3-0.1,0.8-0.2,1-0.6c0.3-0.1,0.6-0.2,0.9-0.4c0.4-0.2,0.8-0.3,1.2-0.5c0.9-0.1,1.6-0.8,2.6-0.8
		c0.6-0.3,1.3-0.3,2-0.6c0.5,0.2,0.9-0.1,1.4-0.2c0.2-0.6,1-0.1,1.4-0.6c0.2,0,0.4,0.1,0.6,0l0.9,0c0.6-0.1,1.2-0.4,1.9-0.2
		c0.3-0.2,0.8,0,1.1-0.2c0.9,0.2,2-0.2,2.8,0.2c0.3,0,0.8,0.2,0.9-0.2c0.1-0.1,0.3-0.1,0.5-0.1c0.1,0.1,0.3,0.1,0.4,0
		c0.2,0,0.4,0,0.6,0.1c0.7,0,1.4-0.1,2-0.1c0.1,0.2,0.5,0,0.6,0.1c1,0,2,0.3,3.1,0.2c1.3,0,2.6,0.6,3.9,0.7c0.3,0,0.8,0.1,1.1,0.2
		c0.8,0.3,1.6,0,2.3,0.4c1.3,0.1,2.2,0.8,3.4,0.9c0.2,0.1,0.5,0.3,0.7,0.2c0.2,0,0.3,0.2,0.6,0.2c0.4,0.3,0.9,0,1.2,0.5
		c0.5-0.1,0.9,0.4,1.3,0.6c0.3-0.1,0.5,0.3,0.8,0.3c0.5,0.4,1.1,0.5,1.5,1c0.5,0,0.6,0.4,1.1,0.5c0.1,0.2,0.1,0.5,0.5,0.5
		c0.1,0.2,0.3,0.2,0.6,0.3c0.2,0.5,0.7,0.6,0.7,1.1c0.2,0.3,0.4,0.7,0.6,1.1c0,0.3,0.3,0.5,0.3,0.8c0.2,0.5-0.1,1.1,0.1,1.5
		c0,0.2-0.1,0.3-0.1,0.4c-0.2-0.1-0.2,0.2-0.2,0.2c0,0.5-0.5,0.8-0.7,1.1v0.2c-0.3,0.3-0.5,0.6-0.8,0.9c-0.5,0-1,0-1.3-0.4
		c-0.1-0.2-0.2-0.3-0.2-0.5c0-0.2-0.2-0.5,0.1-0.5c0.2-0.1,0.3-0.6,0.4-0.8c0.1-0.4-0.3-0.9,0.1-1.3c-0.3-0.2-0.3-0.6-0.2-1
		c-0.2-0.3-0.6-0.6-0.9-0.9c0-0.4-0.5-0.6-0.7-0.8c-0.2-0.2-0.5-0.5-0.7-0.5c-0.4-0.1-0.4-0.9-1-0.8l0.1-0.1
		c-0.2-0.1-0.4-0.4-0.6-0.2c0.1-0.2-0.2-0.3-0.3-0.4c-0.2,0-0.2-0.2-0.3-0.1c-0.3,0-0.7-0.4-1-0.3c-0.3-0.1-0.7-0.1-1-0.3
		c-0.2,0-0.3-0.1-0.4-0.1c-0.4,0-0.8,0-1.2-0.2c-0.3-0.1-0.6,0.2-0.8-0.1c-0.3,0-0.6,0.3-0.9,0c-0.3,0-0.6,0.5-0.9,0.2
		c-0.2-0.2-0.5,0.5-0.6,0.2c-0.6,0.1-0.7,0.2-1.3,0.5c-0.7-0.1-1.3,0-1.9,0.5c-0.2-0.1-0.2,0.2-0.4,0.2c-0.4,0.2-0.1,0.7-0.6,0.8
		c-0.3,0.3-0.4,0.5-0.6,0.8c0.3,0.3-0.4,1-0.2,1.3c0.1,0.4,0.1,0.8,0.3,1.1c0.3,0.5,1.3,0.5,1.4,1.1c0.4,0.3,0.4,1.1,1,0.9
		c0.3,0.2,0.5,0.7,1,0.6c0.3,0.3,0.8,0.2,1,0.6c0.5,0.3,2,0.2,2.6,0.4c0.6,0.2,1.5-0.3,2.1-0.4c0.4-0.2,0.9-0.1,1.1-0.6
		c0.3-0.1,0.3-0.6,0.3-0.9l-0.1-0.1c-0.3-0.8-1.1-1.6-2-1.7c-0.2-0.2-0.6-0.1-0.8-0.2c-0.2-0.2-1.4-0.3-1.4-0.6
		c0.1-0.2,0-0.6,0.4-0.6c0-0.2,0.3,0,0.4-0.2c0.2-0.2,0.7,0.1,0.6-0.3c0.9,0.1,2-0.1,2.7,0.6c0.3,0.2,0.8,0.2,1.1,0.5
		c0.5,0.1,0.9,0.5,1.2,0.9c0.1,0.3,0.1,0.7,0.5,0.8c0.5,0.6-0.2,1.3,0.2,2c0,0.2-0.2,0.1-0.3,0.3c-0.5,0.3-0.1,0.8-0.5,1.1
		c0,0.5-0.5,0.2-0.8,0.4c-0.1,0.2,0,0.4-0.2,0.5c-0.2,0-0.3,0.1-0.4,0.2c-0.3,0-0.4,0.5-0.7,0.2c-0.6,0.6-1.6,0.5-2.4,0.7
		c-0.4,0-0.7,0.2-1.1,0.2c-0.5-0.1-1.1,0-1.6-0.1c-1.4-0.1-2.7-0.6-3.9-1.3c-0.7-0.2-1.2-0.7-1.8-1.2c-0.5-0.3-1-0.6-1.4-1
		c-0.1,0.1,0-0.1-0.1-0.1c-0.7-0.5-1.2-1.1-1.5-1.9c-0.3,0-0.2-0.3-0.2-0.5c-0.3-0.4-0.3-0.9-0.6-1.4c0.1-0.7-0.1-1.2,0.2-1.9
		c0-0.4,0.4-0.9,0.3-1.3c0-0.3,0.1-0.7-0.3-0.9c-0.2,0-0.4-0.2-0.6-0.3c-0.4,0-0.9,0.2-1.3,0c-0.4,0-0.8,0-1.1,0.1
		c-0.4,0-0.8,0.1-1.2,0.1c-0.6,0.1-1.2-0.3-1.8,0.1c-0.8,0-1.6,0.1-2.4,0.3c-1,0-1.8,0.4-2.8,0.4c-0.3,0.4-0.9,0.5-1.4,0.7
		c-1.2,0.2-2.3,0.7-3.4,1c-0.5,0.1-0.8,0.6-1.1,0.8c-0.2-0.1-0.4,0.1-0.4,0.3c-0.4,0.2-0.8,0.6-1.2,0.7c-0.2,0.4-0.6,0.7-1,0.9
		c-0.2,0.5-0.7,0.9-1.3,1.2c-0.4,0.6-0.8,1.2-0.8,1.9c-0.1,0.2-0.1,0.5-0.4,0.6c0.2,0.4,0,0.7,0.1,1.1c-0.3,0.4-0.4,1-0.2,1.5
		c0,0.2,0.1,0.5,0.2,0.8c0.5,0.6,0,1.4,0.6,2c0.3,0.1,0.5-0.2,0.7-0.1c0.5,0,0.8-0.6,1.2-0.7c0.2-0.2,0.6-0.4,0.8-0.6
		c0.2,0,0.3-0.1,0.5-0.3c0.4-0.3,0.9-0.6,1.4-0.8c0.1,0.1,0.2,0,0.4-0.1c0-0.2,0.2-0.1,0.3-0.2c0.4-0.3,0.8-0.5,1.3-0.7
		c0.5-0.2,1-0.6,1.6-0.7c0.7-0.5,1.6-0.8,2.4-1.3c0.5,0.1,0.8-0.3,1.3-0.3c0.2-0.3,0.6-0.1,0.9-0.4c0.6,0.2,0.9-0.4,1.4-0.3
		c0.3-0.2,0.6,0,0.9-0.2c0.7,0.1,1.3,0,2-0.1c0.6-0.2,1.2,0.1,1.8,0.1c0.3-0.2,0.4,0.2,0.6,0.3c0,0.2,0,0.3-0.1,0.4c0,0-0.1,0-0.1,0
		c-0.8,0.5-1.8,0.6-2.5,1.3c-0.6,0.3-1.2,0.2-1.7,0.6c-0.3,0-0.4,0.2-0.6,0.3c-0.4,0.1-0.6,0.4-1,0.6c-0.3,0.5-0.9,0.5-1.4,1
		c-0.1,0-0.1,0.2-0.3,0.2c-0.5,0.3-1.1,0.4-1.5,0.8c-0.2-0.2-0.4,0.2-0.6-0.1c-0.1,0-0.2,0-0.2,0.1l0,0.2c-0.5,0.5-1.1,0.8-1.6,1.2
		c-0.5,0.1-0.7,0.6-1,0.8c-0.1,0.1-0.2,0.2-0.2,0.3l0,0c-0.8,0.4-1.7,1.1-2.2,1.9c-0.5,0.3-1,0.6-1.1,1.1c-0.3,0.3-0.4,0.7-0.5,1.1
		c0.1,0.2-0.2,0.3,0,0.5c0.1,0.3,0.3,0.4,0.5,0.5c0.3,0.3,0.3,0.8,0.7,0.9c0.2,0.5,0.7,0.7,1,1.1c0.2,0.3,0.5,0.5,0.6,0.8
		c0.1,0.5,0.8,0.4,0.8,1c0.5,0.2,0.7,0.8,1.2,0.9c0.2,0.1,0.1,0.5,0.4,0.5c0.2,0.3,0.6,0.3,0.8,0.6c0.2,0.2,0.5,0.5,0.8,0.5
		c0.4,0.5,0.8,1,1.4,1.2c0.3,0.2,0.8,0.2,0.9,0.6c0.5,0.2,0.9,0.4,1.3,0.8c0.3,0.2,0.6,0.2,0.8,0.4c0.5,0,0.9,0.4,1.4,0.7
		c0.4,0.3,0.9,0.6,1.4,0.7c0.3,0,0.5,0.3,0.8,0.2c0.4-0.1,1.1,0,1.2-0.5c0.6-0.3,0.5-1.1,1-1.6c0.3-0.6,0.8-1.1,1.2-1.6
		c0.1-0.3,0.5,0,0.5-0.4c0.3-0.1,0-0.4,0.1-0.5c0.2-0.3,0.4-0.6,0.5-0.9c0.2,0,0.3-0.3,0.4-0.3c0.6-0.6,0.8-1.3,1.5-1.6
		c0.6-0.8,1.5-1.4,2.3-2c0.1,0,0.2-0.1,0.3-0.1c0.2,0.1,0.5-0.2,0.7,0c-0.2,0.3,0.3,0.6,0,0.8c0,0.4-0.3,0.6-0.3,1
		c-0.6,0.7-1,1.6-1.5,2.4c0,0.8-0.9,1.2-1,2c-0.3,0.3-0.6,0.7-0.8,1.1c-0.3,0.4-0.4,0.9-0.6,1.4c-0.2,0.2-0.3,0.5-0.5,0.7
		c0,0.5-0.1,1-0.3,1.4c0,0.4,0.4,0.5,0.5,0.8c0.2,0.1,0.3,0.1,0.5,0c0.3,0.1,0.5,0.1,0.7,0.3c0.5,0.1,1,0.1,1.3,0.5
		c0.3,0.3,0.6-0.1,0.8,0.2c0.4,0.1,0.8,0.3,1.2,0.2c0.7,0.2,1.4,0.5,2.2,0.3c0.3,0.1,0.7,0.1,1.1,0.2c0.5,0.1,1,0.2,1.6,0.1
		c0.5,0.2,1.1-0.1,1.7,0.1c0.4,0.1,0.7,0,1.1,0c0.6,0,1.4,0.1,2,0c0.3-0.1,0.5,0.4,0.7,0.3c0.3,0.3-0.3,0.4-0.2,0.7
		c-0.5,0.6-1.4,0.6-2,1.1c-1,0.2-1.9,0.2-2.8,0.4c-0.5-0.2-1.2,0.1-1.8,0.1c-0.6,0.1-1.3,0.2-2,0.1c-0.3-0.2-0.5,0-0.8-0.2
		c-0.2,0-0.6,0.2-0.8,0c-0.5-0.1-1-0.3-1.4-0.6c-0.5-0.3-0.9,0.1-1.4,0.2c-0.4-0.1-0.8,0.2-1.1-0.2c-0.2,0.3-0.5-0.1-0.8,0.1
		c-0.2,0-0.4-0.3-0.6-0.1c-0.2,0-0.5,0-0.7-0.2c-0.3,0.2-0.9,0-1,0.5c-0.1,0.9-0.9,1.4-1,2.3c-0.6,0.4-0.2,1.2-0.6,1.7
		c0,0.7-0.6,1-0.9,1.7c0.1,0.2,0.1,0.5,0.1,0.7c0.2,0.6-0.3,1.1-0.5,1.5c-0.1,0.4-0.1,0.9-0.5,1.2c0,0.3,0,0.5,0,0.9
		c-0.1,0.1,0,0.3-0.1,0.4c-0.3,0.3-0.2,0.7-0.3,1.1c0.2,0.3-0.1,0.7-0.1,1.1c-0.1,0.3,0.1,0.7-0.3,0.9c0,0.3-0.1,0.5-0.4,0.6
		l-0.2,0.1c-0.1,0.3,0.3,0.5,0.3,0.8c0.1,0.8-0.5,1.4-0.5,2.2c-0.2,0.9,0,2,0,2.9c0.2,0.3,0.1,0.8,0.2,1.1c0.2,0,0.2,0.3,0.4,0.3
		c0.3,0.1,0.7,0.1,1,0.3c0.4,0,0.7,0.3,1.1,0.3c0.5,0.1,1.1,0.1,1.5,0.3c0.2,0,0.4,0.2,0.6,0.4c0.3,0,0.6,0.2,0.8,0
		c0.2-0.1,0.4,0.1,0.6,0c0.5,0,0.7,0.4,1.2,0.3c2,0,4,0.5,6,0.4c0.6-0.1,1.1,0.3,1.7,0c0.8,0,1.7-0.1,2.6-0.1c0.2,0.3,0.5,0,0.8,0.1
		c0.4-0.1,0.7-0.5,1.2-0.3c0.3-0.2,0.5-0.1,0.8-0.1c0.3-0.1,0.6-0.1,0.9,0c0.5,0,0.8-0.4,1.2-0.3c0.2-0.3,0.5,0,0.7-0.1
		c0.3,0.1,0.6-0.2,0.9-0.1c0.3-0.1,0.8-0.1,0.9-0.4c0.3,0.1,0.7-0.1,1.1-0.1c0.6,0.2,1.1-0.3,1.6-0.5c0.5-0.3,1.1-0.3,1.6-0.6
		c0.5,0,0.9-0.2,1.3-0.4c0.4,0,0.7-0.3,1.1-0.2c0.2-0.3,0.7-0.2,0.9-0.5c0.6-0.4,1.4-0.7,2.2-1.1c0.4,0.1,1-0.5,1.3,0
		c0,0.9-0.9,1.5-1.4,2.1c-0.9,0.6-1.8,1.4-2.8,1.9c-0.4,0.2-0.9,0-1.2,0.4c-0.6,0.3-1.2,0.6-1.8,0.9c-0.5-0.1-0.8,0.4-1.2,0.4
		c-0.5,0.2-0.9,0.6-1.5,0.6c-0.4,0.3-0.9,0.4-1.4,0.5c-0.4,0.3-0.8,0.1-1.3,0.3c-0.3-0.1-0.5-0.5-0.9-0.3c-0.2,0.5-0.8,0.2-1.1,0.6
		c-0.2,0-0.1,0.1-0.2,0.2c-0.3,0-0.6,0-0.9,0.1c-0.5,0-0.9,0.1-1.2,0.3c-0.3-0.2-0.7-0.1-0.9,0.1c-0.3,0.2-0.7-0.1-0.9,0.2
		c-0.1,0-0.1-0.1-0.3,0c0,0-0.1,0.1-0.1,0.1c-0.1-0.1-0.2,0-0.3,0c-0.7,0.1-1.4,0-2,0.2c-0.6,0-1.2,0.1-1.8,0.1
		c-0.1,0.1-0.2,0.1-0.3,0.1c-0.6-0.3-1.4-0.1-2.1-0.2c-0.3-0.1-0.8-0.1-1.1,0l-0.2-0.1c-0.4-0.1-0.8,0.2-1.1-0.1
		c-0.2,0-0.5,0-0.6-0.1c-0.3,0-0.6-0.1-0.9,0c-0.4-0.2-1,0-1.5-0.3c-0.3,0-0.4-0.5-0.7-0.3c-0.4,0.6-1,0.2-1.6,0.3
		c-0.1-0.1-0.4,0-0.6-0.1c-0.5-0.2-0.9-0.3-1.4-0.2c-0.3,0-0.7-0.3-1,0c-0.1,0.1-0.1,0.4-0.3,0.5c-0.1,0.8,0,1.5,0,2.2
		c0.1,0.1,0.1,0.2,0,0.3c0,0.8,0.5,1.4,0.3,2.2c-0.1,0.1-0.3,0.3-0.2,0.5c0.2,0.2,0.3,0.5,0.3,0.8c6.4,1.5,15.8,4.1,24.8,6.6
		c0.2-0.1,0.4-0.2,0.7-0.3c0.6-0.6,1.4-0.8,2.1-1.2c0.3,0,0.4-0.4,0.7-0.2c0.1,0,0.1,0,0.2-0.1c-0.1-0.3,0.3-0.3,0.4-0.6
		c0.2,0,0.3-0.2,0.5-0.2c0.3-0.3,0.8-0.3,1.1-0.8c0.3-0.2,0.6-0.3,0.8-0.6c0.8-0.2,1.4-0.9,2.1-1.4c0.5-0.5,1.1-0.9,1.7-1.4
		c0.2-0.1,0.4-0.4,0.7-0.6c0-0.1,0-0.2,0.2-0.2c0.7-0.9,1.6-1.5,2.3-2.3c0-0.2,0.2-0.1,0.3-0.3c0.6-1,1.2-1.9,2-2.7
		c0.1-0.2,0.2-0.6,0.5-0.7c0-0.2,0.3-0.2,0.3-0.5c0-0.3,0.4-0.3,0.3-0.6c0.1-0.1,0.1-0.3,0.3-0.5c0.1-0.2,0.3-0.4,0.3-0.6
		c0.2-0.1,0.2-0.5,0.5-0.7c0.4-0.2-0.1-0.4,0.3-0.6c0.1-0.3,0.4-0.5,0.3-0.8c0.1-0.2,0.5-0.4,0.4-0.8c0.2-0.1,0.2-0.3,0.3-0.4
		c0.2-0.2,0-0.6,0.4-0.5c0.1-0.1,0-0.4,0.1-0.5c0.4-0.1-0.1-0.5,0.3-0.6c0.3-0.1,0.1-0.6,0.3-0.7c0.1-0.7,0.7-1.3,0.5-2.1
		c0.1-0.5,0.5-0.9,0.5-1.5c0.3-0.3,0.1-0.8,0.4-1.1c0.5,0,0.2-0.5,0.3-0.8c0-0.3,0.3-0.6,0.1-0.9c0.1-0.2,0-0.3,0.2-0.5
		c0.1-0.3,0.1-0.7,0.1-1.1c-0.1-0.5,0.1-0.9,0.2-1.5c0.1-0.4,0.2-0.9,0.5-1.2c0-0.4,0.2-0.6,0-1c0-0.3,0.1-0.6,0-1
		c0-0.6,0.1-1.2,0.1-1.7c0.1-0.1,0-0.3,0.1-0.4c0-0.2,0-0.5,0.2-0.6c-0.1-0.7-0.1-1.4-0.1-2.1c-0.3-0.5,0-1.2-0.3-1.8
		c0-0.2,0.1-0.3,0.2-0.5c-0.2-0.4-0.1-0.9-0.3-1.4c0-0.1-0.1-0.3,0-0.3c0-0.4-0.3-0.8-0.2-1.1c-0.1-0.7-0.2-1.5-0.6-2.2
		c-0.1-0.7-0.1-1.6-0.4-2.3c-0.3-1-0.8-2-1.2-2.9c-0.3-0.2-0.3-0.6-0.2-0.9c-0.2-0.2,0-0.5-0.2-0.6c-0.1-0.5-0.4-1-0.6-1.5
		c-0.2,0-0.1-0.2-0.2-0.3c-0.3-0.7-0.8-1.1-1.2-1.8h-0.1c-0.4-0.5-0.6-1.1-0.9-1.5c-0.2-0.5-0.8-0.7-0.8-1.3
		c-0.4-0.5-0.9-0.9-1.2-1.4c-0.3-0.5-0.5-1.1-0.9-1.5c-0.2-0.4-0.5-0.7-0.8-1c-0.7-0.2-1.2-0.9-1.5-1.5c-0.4-0.3-0.5-0.8-0.9-1
		c-0.2-0.1-0.2-0.3-0.2-0.5c-0.3-0.4-0.6-0.9-0.9-1.4c-0.3-0.1-0.3-0.4-0.5-0.6c0.1-0.2-0.1-0.2-0.2-0.3c-0.1-0.6-0.9-0.2-1.1-0.8
		c-0.1-0.5-0.7-0.8-0.6-1.5c-0.3-0.2,0.3-0.3,0.1-0.6c0.3-0.3,0.7,0,1-0.1l0.5,0.3c0.3,0,0.5,0.4,0.9,0.5c0.6,0.6,1.4,1,2,1.5
		c0.6,0.7,1.3,1.2,1.9,1.8c0.6,0.4,0.9,1,1.4,1.4c0.2,0.2,0.5,0.3,0.6,0.6c0.9,0.8,1.4,1.8,2.3,2.5c0,0.3,0.4,0.4,0.4,0.7
		c0.2,0.1,0.2,0.3,0.2,0.5c0.3,0.5,0.6,0.9,0.8,1.4c0.4,0.3,0.7,0.7,0.9,1.2c0.4,0.2,0.4,0.6,0.7,0.9c0.2,0.4,0.7,0.6,0.7,1.1
		c0.6,0.6,0.5,1.7,1.2,2.3c0.2,0.4,0.1,0.9,0.4,1.3c0.3,0.3,0.3,0.8,0.6,1.2c0,0.3,0.3,0.6,0.3,0.9c0,0.2,0,0.5,0.3,0.6
		c0.3,0.3-0.3,0.8,0.3,1c0,0.5,0.1,0.8,0.4,1.2c0.1,0.6,0.4,1.1,0.6,1.6v-3.1v-0.5V23C142.4,23,91.1,38.5,84.7,38.5L84.7,38.5z
		 M124.1,73.3c-0.2,0.5,0.8,0.5,0.5,1.1c0.2,0.4,0.6,0.4,0.8,0.8c0.7,0.8,1.2,1.6,1.8,2.4c0.1,0.1-0.1,0.2,0,0.3
		c0.2,0.2,0.4,0.5,0.4,0.8c0.1,0.3,0.4,0.5,0.4,0.8c0.3,0.7,0.5,1.4,0.8,2c0,0.4,0.4,0.7,0.5,1.1c0.3,0.1,0.1,0.5,0.3,0.6
		c0,0.4,0.3,0.7,0.1,1.1c0,0.3,0.3,0.6,0.2,0.9c0,0.4,0.4,0.8,0.4,1.3c0.2,0.7,0.4,1.4,0.3,2.2c0.2,0.8,0,1.5,0.2,2.2
		c-0.1,0.3-0.2,0.7-0.1,1.1c0,0.7-0.2,1.4-0.1,2c-0.3,0.3-0.1,0.7,0,1c0,0.3-0.4,0.5-0.3,0.9c-0.2,1.1-0.6,2.2-0.7,3.4
		c-0.2,0.3,0,0.7-0.3,0.9c-0.1,0-0.2,0-0.2,0.1c-0.1,0.2,0,0.4,0.1,0.6c-0.1,0.5-0.1,1.1-0.5,1.5c-0.3,1-1.1,1.9-1.9,2.8
		c-0.2,0.4-0.5,0.7-0.8,0.9c-0.3-0.2-0.5,0.2-0.8,0c-0.2-0.2-0.3-0.3-0.2-0.6c0.2-0.2,0-0.5,0.2-0.6c0-0.3,0.2-0.4,0.3-0.6
		c0.2-0.5,0.1-1.1,0.4-1.6c0.2-0.6,0.4-1.2,0.5-1.9c0.2-0.5,0.2-1.2,0.4-1.8c-0.1-0.6,0.2-1.3,0.2-1.9c0.1-0.2,0-0.4,0.1-0.6
		c0.3-1.2,0.1-2.7,0.3-4.1c-0.2-0.7,0.3-1.4,0-2.1c0-0.9-0.4-1.7-0.4-2.7c-0.2-0.4,0-0.9-0.3-1.2c-0.2-0.9-0.7-1.6-0.6-2.5
		c-0.2-0.6-0.4-1.2-0.7-1.8c0.1-0.1-0.1-0.2-0.1-0.3c-0.2-0.6-0.3-1.2-0.7-1.8c-0.3-0.6-0.8-1.1-0.9-1.8c0-0.4-0.4-0.6-0.4-1
		c-0.4-0.3-0.5-0.8-0.8-1.2c0.2-0.5-0.2-0.8-0.5-1.1c-0.6-0.2-0.8-0.9-1.2-1.3c-0.3-0.4-0.5-0.9-0.8-1.4c-0.1-0.3-0.1-0.6-0.2-0.8
		c0-0.2,0.3-0.1,0.3-0.3h0c0.1-0.2,0.3-0.3,0.5-0.3c0.1,0.2,0.5,0.2,0.6,0.3c0.5,0.3,1.2,0.3,1.4,1
		C123.2,72.6,123.7,72.8,124.1,73.3L124.1,73.3z"/>
</g>
</svg>
